#
#
#

mtllib cube.mtl


#
#  Mesh
#
g  Mesh


#
#  Mesh_Material
#
usemtl  Mesh_Material

v 1.000000 -1.000000 1.000000
v -1.000000 -1.000000 1.000000
v -1.000000 -1.000000 -1.000000
v -1.000000 1.000000 -1.000000
v -1.000000 1.000000 1.000000
v 0.999999 1.000000 1.000000
v 1.000000 1.000000 -0.999999
v 1.000000 -1.000000 -1.000000
vn 0.666667 -0.666667 0.333333
vn -0.666667 -0.333333 0.666667
vn -0.408248 -0.816497 -0.408248
vn -0.577350 0.577350 -0.577350
vn -0.577350 0.577350 0.577350
vn 0.333333 0.666667 0.666667
vn 0.816497 0.408249 -0.408248
vn 0.408248 -0.408248 -0.816497
vt 1.000000 0.333333
vt 1.000000 0.666667
vt 0.666667 0.666667
vt 0.666667 0.333333
vt 0.666667 0.000000
vt 0.000000 0.333333
vt 0.000000 0.000000
vt 0.333333 0.000000
vt 0.333333 1.000000
vt 0.000000 1.000000
vt 0.000000 0.666667
vt 0.333333 0.333333
vt 0.333333 0.666667
vt 1.000000 0.000000
f 1/1/1 2/2/2 3/3/3
f 4/1/4 5/4/5 6/5/6
f 7/6/7 6/7/6 1/8/1
f 6/8/6 5/5/5 2/4/2
f 2/9/2 5/10/5 4/11/4
f 8/12/8 3/13/3 4/11/4
f 8/4/8 1/1/1 3/3/3
f 7/14/7 4/1/4 6/5/6
f 8/12/8 7/6/7 1/8/1
f 1/12/1 6/8/6 2/4/2
f 3/13/3 2/9/2 4/11/4
f 7/6/7 8/12/8 4/11/4
